<svg width="31" height="32" viewBox="0 0 31 32" fill="none" xmlns="http://www.w3.org/2000/svg">
<g id="LinkedIn">
<g id="LinkedIn_2">
<rect id="Rectangle" width="31" height="32" rx="15.5" fill="#0077B5"/>
<g id="Group">
<path id="Path" d="M24.1057 23.55C23.0885 23.525 22.0956 23.525 21.0784 23.55C20.8604 23.55 20.812 23.5 20.812 23.275C20.812 21.425 20.812 19.55 20.812 17.7C20.812 17.275 20.7877 16.85 20.6667 16.45C20.3034 15.15 18.8502 14.675 17.8088 15.55C17.2518 16 17.0338 16.625 17.0338 17.375C17.0338 19.125 17.0338 20.875 17.0338 22.625C17.0338 22.85 17.0096 23.075 17.0338 23.325C17.0581 23.525 16.9612 23.575 16.7917 23.55C15.7502 23.55 14.7331 23.55 13.6917 23.55C13.4979 23.55 13.4495 23.5 13.4495 23.3C13.4737 21.725 13.4737 20.15 13.4737 18.55C13.4737 16.6 13.4737 14.65 13.4495 12.725C13.4495 12.5 13.4979 12.45 13.6917 12.45C14.7331 12.45 15.7502 12.45 16.7917 12.45C16.9854 12.45 17.0338 12.5 17.0338 12.7C17.0338 13.1 17.0338 13.5 17.0338 13.975C17.1065 13.9 17.1307 13.875 17.1549 13.85C18.0995 12.425 19.4315 12.025 21.0057 12.275C22.8221 12.575 23.9846 13.875 24.2752 15.875C24.3479 16.35 24.3721 16.825 24.3721 17.3C24.3721 19.3 24.3721 21.275 24.3721 23.275C24.3721 23.475 24.3237 23.55 24.1057 23.55Z" fill="white"/>
<path id="Path_2" d="M11.5119 18C11.5119 19.75 11.5119 21.5 11.5119 23.25C11.5119 23.475 11.4635 23.55 11.2455 23.55C10.2283 23.525 9.21116 23.55 8.19397 23.55C8.00022 23.55 7.95178 23.5 7.95178 23.3C7.95178 19.775 7.95178 16.225 7.95178 12.7C7.95178 12.525 8.00022 12.45 8.19397 12.45C9.23538 12.45 10.2768 12.45 11.3182 12.45C11.5362 12.45 11.5604 12.525 11.5604 12.725C11.5119 14.475 11.5119 16.225 11.5119 18Z" fill="white"/>
<path id="Path_3" d="M11.6815 9.55001C11.4393 10.55 10.4464 11.125 9.30808 10.925C8.09714 10.725 7.41902 9.50001 7.85495 8.30001C8.14558 7.55001 8.84792 7.10001 9.74402 7.12501C11.1003 7.10001 11.9964 8.22501 11.6815 9.55001Z" fill="white"/>
</g>
</g>
</g>
</svg>
